# xmcd
#
# Track frame offsets: 
#        150
#        22122
#        40867
#
# Disc length: 692 seconds
#
# Revision: 4
# Processed by: cddbd v1.5.2PL0 Copyright (c) Steve Scherf et al.
# Submitted via: ExactAudioCopy v0.95b3
#
DISCID=1e02b203
DTITLE=The Shins - Phantom Limb EP
DYEAR=2006
DGENRE=Rock
TTITLE0=Phantom Limb
TTITLE1=Nothing At All
TTITLE2=Spilt Needles (Alt Version)
EXTD=YEAR: 2006
EXTT0=
EXTT1=
EXTT2=
PLAYORDER=
